<svg id="Layer_1" data-name="Layer 1" xmlns="http://www.w3.org/2000/svg" xmlns:xlink="http://www.w3.org/1999/xlink" viewBox="0 0 140.94 120.96"><defs><style>.cls-1,.cls-2,.cls-3{fill:#fff;}.cls-1{clip-rule:evenodd;}.cls-3{fill-rule:evenodd;}.cls-4{clip-path:url(#clip-path);}.cls-5{clip-path:url(#clip-path-2);}.cls-6{clip-path:url(#clip-path-3);}.cls-7{clip-path:url(#clip-path-4);}</style>
<clipPath id="clip-path" transform="translate(-2.1 -14.15)">
<path id="SVGID" class="cls-1" d="M41.55,62.6a1.32,1.32,0,1,1-1.33,1.32,1.33,1.33,0,0,1,1.33-1.32Z"/></clipPath>
<clipPath id="clip-path-2" transform="translate(-2.1 -14.15)">
<path id="SVGID-2" data-name="SVGID" class="cls-1" d="M47.41,58.6a1.32,1.32,0,1,1-1.33,1.32,1.33,1.33,0,0,1,1.33-1.32Z"/></clipPath>
<clipPath id="clip-path-3" transform="translate(-2.1 -14.15)">
<path id="SVGID-3" data-name="SVGID" class="cls-1" d="M54.83,57.07a1.32,1.32,0,1,1-1.33,1.32,1.33,1.33,0,0,1,1.33-1.32Z"/></clipPath>
<clipPath id="clip-path-4" transform="translate(-2.1 -14.15)">
<path id="SVGID-4" data-name="SVGID" class="cls-1" d="M61.77,58.44a1.32,1.32,0,1,1-1.32,1.32,1.32,1.32,0,0,1,1.32-1.32Z"/></clipPath></defs><title>logo</title>
<path class="cls-2" d="M107.49,45.51H84.79V24.87C80.05,22,76.13,18.93,74.7,14.28,73.41,19,69.53,22,64.8,24.81v20.7H42.27a41.59,41.59,0,0,0-2.93,15.31,25.56,25.56,0,0,0,.33,4.67H43l.23-.22a17.81,17.81,0,0,1,23.8,0c.3.29.6.58.89.89V65a1.21,1.21,0,0,1,0-2.4v-.27H66.76V49.42h1.18V44.33h.66l1.73-5.09.06.39h.68V35.71h.39V34.14h.7l2.41-8.62h.76l2.41,8.62h.38v1.57h.4v3.92h.71l1.69,4.7h.34v5.09h1.18V62.36h-.79V96.45c1.07-.23,2.11-.51,3.14-.84V65.49h25.12a34.6,34.6,0,0,0,.35-4.68,38,38,0,0,0-2.77-15.3ZM97.11,32.58,88.31,38v4h17.48a33.15,33.15,0,0,0-8.68-9.4Zm-8.8,40.84,14.83,9.08a37.24,37.24,0,0,0,6.2-13.09h-21v4ZM61.27,38l-8.89-5.45A32.72,32.72,0,0,0,43.92,42H61.27V38ZM42.64,66h0l0,0,0,0Z" transform="translate(-2.1 -14.15)"/>
<path class="cls-3" d="M88.71,77.64l12.14,7.72a38.32,38.32,0,0,1-12.54,9.08l.4-16.8Zm-.4-43.87,5.63-3.41c-1.72-1.13-3.59-2.28-5.63-3.44v6.85Zm-27,0-5.63-3.41c1.73-1.13,3.6-2.28,5.63-3.45v6.86Z" transform="translate(-2.1 -14.15)"/>
<path class="cls-3" d="M41.55,62.6a1.32,1.32,0,1,1-1.33,1.32,1.33,1.33,0,0,1,1.33-1.32Z" transform="translate(-2.1 -14.15)"/>
<path id="SVGID-5" data-name="SVGID" class="cls-3" d="M41.55,62.6a1.32,1.32,0,1,1-1.33,1.32,1.33,1.33,0,0,1,1.33-1.32Z" transform="translate(-2.1 -14.15)"/><g class="cls-4">
<polygon class="cls-2" points="72.69 28.05 26.96 0 8.62 0 8.62 15.72 50.71 41.54 8.62 67.36 8.62 83.08 26.96 83.08 72.69 55.02 118.43 83.08 136.77 83.08 136.77 67.36 94.68 41.54 136.77 15.72 136.77 0 118.43 0 72.69 28.05 72.69 28.05"/>
<polygon class="cls-2" points="136.77 0 125.25 0 72.69 32.24 20.14 0 8.62 0 8.62 11.54 57.53 41.54 8.62 71.54 8.62 83.08 20.14 83.08 72.69 50.84 125.25 83.08 136.77 83.08 136.77 71.54 87.86 41.54 136.77 11.54 136.77 0 136.77 0"/>
<polygon class="cls-2" points="136.77 27.82 86.22 27.82 86.22 0 58.78 0 58.78 27.82 8.62 27.82 8.62 55.26 58.78 55.26 58.78 83.08 86.22 83.08 86.22 55.26 136.77 55.26 136.77 27.82 136.77 27.82"/>
<polygon class="cls-2" points="136.77 31.35 82.69 31.35 82.69 0 62.7 0 62.7 31.35 8.62 31.35 8.62 51.34 62.7 51.34 62.7 83.08 82.69 83.08 82.69 51.34 136.77 51.34 136.77 31.35 136.77 31.35"/></g>
<path class="cls-3" d="M47.41,58.6a1.32,1.32,0,1,1-1.33,1.32,1.33,1.33,0,0,1,1.33-1.32Z" transform="translate(-2.1 -14.15)"/>
<path id="SVGID-6" data-name="SVGID" class="cls-3" d="M47.41,58.6a1.32,1.32,0,1,1-1.33,1.32,1.33,1.33,0,0,1,1.33-1.32Z" transform="translate(-2.1 -14.15)"/><g class="cls-5">
<polygon class="cls-2" points="72.69 28.05 26.96 0 8.62 0 8.62 15.72 50.71 41.54 8.62 67.36 8.62 83.08 26.96 83.08 72.69 55.02 118.43 83.08 136.77 83.08 136.77 67.36 94.68 41.54 136.77 15.72 136.77 0 118.43 0 72.69 28.05 72.69 28.05"/>
<polygon class="cls-2" points="136.77 0 125.25 0 72.69 32.24 20.14 0 8.62 0 8.62 11.54 57.53 41.54 8.62 71.54 8.62 83.08 20.14 83.08 72.69 50.84 125.25 83.08 136.77 83.08 136.77 71.54 87.86 41.54 136.77 11.54 136.77 0 136.77 0"/>
<polygon class="cls-2" points="136.77 27.82 86.22 27.82 86.22 0 58.78 0 58.78 27.82 8.62 27.82 8.62 55.26 58.78 55.26 58.78 83.08 86.22 83.08 86.22 55.26 136.77 55.26 136.77 27.82 136.77 27.82"/>
<polygon class="cls-2" points="136.77 31.35 82.69 31.35 82.69 0 62.7 0 62.7 31.35 8.62 31.35 8.62 51.34 62.7 51.34 62.7 83.08 82.69 83.08 82.69 51.34 136.77 51.34 136.77 31.35 136.77 31.35"/></g>
<path class="cls-3" d="M54.83,57.07a1.32,1.32,0,1,1-1.33,1.32,1.33,1.33,0,0,1,1.33-1.32Z" transform="translate(-2.1 -14.15)"/>
<path id="SVGID-7" data-name="SVGID" class="cls-3" d="M54.83,57.07a1.32,1.32,0,1,1-1.33,1.32,1.33,1.33,0,0,1,1.33-1.32Z" transform="translate(-2.1 -14.15)"/><g class="cls-6">
<polygon class="cls-2" points="72.69 28.05 26.96 0 8.62 0 8.62 15.72 50.71 41.54 8.62 67.36 8.62 83.08 26.96 83.08 72.69 55.02 118.43 83.08 136.77 83.08 136.77 67.36 94.68 41.54 136.77 15.72 136.77 0 118.43 0 72.69 28.05 72.69 28.05"/>
<polygon class="cls-2" points="136.77 0 125.25 0 72.69 32.24 20.14 0 8.62 0 8.62 11.54 57.53 41.54 8.62 71.54 8.62 83.08 20.14 83.08 72.69 50.84 125.25 83.08 136.77 83.08 136.77 71.54 87.86 41.54 136.77 11.54 136.77 0 136.77 0"/>
<polygon class="cls-2" points="136.77 27.82 86.22 27.82 86.22 0 58.78 0 58.78 27.82 8.62 27.82 8.62 55.26 58.78 55.26 58.78 83.08 86.22 83.08 86.22 55.26 136.77 55.26 136.77 27.82 136.77 27.82"/>
<polygon class="cls-2" points="136.77 31.35 82.69 31.35 82.69 0 62.7 0 62.7 31.35 8.62 31.35 8.62 51.34 62.7 51.34 62.7 83.08 82.69 83.08 82.69 51.34 136.77 51.34 136.77 31.35 136.77 31.35"/></g>
<path class="cls-3" d="M61.77,58.44a1.32,1.32,0,1,1-1.32,1.32,1.32,1.32,0,0,1,1.32-1.32Z" transform="translate(-2.1 -14.15)"/>
<path id="SVGID-8" data-name="SVGID" class="cls-3" d="M61.77,58.44a1.32,1.32,0,1,1-1.32,1.32,1.32,1.32,0,0,1,1.32-1.32Z" transform="translate(-2.1 -14.15)"/><g class="cls-7">
<polygon class="cls-2" points="72.69 28.05 26.96 0 8.62 0 8.62 15.72 50.71 41.54 8.62 67.36 8.62 83.08 26.96 83.08 72.69 55.02 118.43 83.08 136.77 83.08 136.77 67.36 94.68 41.54 136.77 15.72 136.77 0 118.43 0 72.69 28.05 72.69 28.05"/>
<polygon class="cls-2" points="136.77 0 125.25 0 72.69 32.24 20.14 0 8.62 0 8.62 11.54 57.53 41.54 8.62 71.54 8.62 83.08 20.14 83.08 72.69 50.84 125.25 83.08 136.77 83.08 136.77 71.54 87.86 41.54 136.77 11.54 136.77 0 136.77 0"/>
<polygon class="cls-2" points="136.77 27.82 86.22 27.82 86.22 0 58.78 0 58.78 27.82 8.62 27.82 8.62 55.26 58.78 55.26 58.78 83.08 86.22 83.08 86.22 55.26 136.77 55.26 136.77 27.82 136.77 27.82"/>
<polygon class="cls-2" points="136.77 31.35 82.69 31.35 82.69 0 62.7 0 62.7 31.35 8.62 31.35 8.62 51.34 62.7 51.34 62.7 83.08 82.69 83.08 82.69 51.34 136.77 51.34 136.77 31.35 136.77 31.35"/></g>
<path class="cls-2" d="M55.15,62.67A14.67,14.67,0,0,1,65.54,67a15,15,0,0,1,2.4,3.13V67.47a16.51,16.51,0,0,0-1.36-1.53,16.2,16.2,0,0,0-22.86,0,16.08,16.08,0,0,0,8,27.11L52,91.62a14.64,14.64,0,0,1,3.13-28.95Zm12.79,8.87a14.41,14.41,0,0,0-2.53-3.77l-9.08,9,.09.14,11.52-4.37v-1Zm0,1.32L56.47,77.21v0H67.94V72.86Zm0,5.17H56.34l0,.08,11.4,5.27.22-.13V78Zm0,6.52a15.16,15.16,0,0,1-2.4,3.12,14.6,14.6,0,0,1-7.26,4l.26,1.43a16.11,16.11,0,0,0,8-4.36,16.51,16.51,0,0,0,1.36-1.53V84.55Zm0,3.64c-.29.33-.59.65-.89,1a16.78,16.78,0,0,1-8.38,4.54l.51,2.77h8.76V91.76a1.32,1.32,0,0,1,0-2.6v-1ZM68,98H41.68V96.45h9.39l.52-2.76a16.87,16.87,0,0,1-8.4-4.54,16.63,16.63,0,0,1,0-23.66,17,17,0,0,1,23.85,0q.46.47.9,1V65.23a1.31,1.31,0,0,1,0-2.58v-.29H66.76V49.42h1.18V44.33h.66l1.73-5.09.06.39h.68V35.71h.39V34.14h.7l2.41-8.62h.76l2.41,8.62h.38v1.57h.4v3.92h.71l1.7,4.7h.33v5.09h1.18V62.36h-.79V98ZM75.77,45.8a1.19,1.19,0,0,1,.83.32,1,1,0,0,1,.35.77v2.53h0V46.89a1.06,1.06,0,0,1,.34-.77,1.23,1.23,0,0,1,.83-.32,1.19,1.19,0,0,1,.83.32,1,1,0,0,1,.35.77v2.53h1.57V45.11H68.72v4.31H69.9V46.89a1.06,1.06,0,0,1,.34-.77,1.24,1.24,0,0,1,1.66,0,1.07,1.07,0,0,1,.35.77v2.53h0V46.89a1.06,1.06,0,0,1,.34-.77,1.21,1.21,0,0,1,.83-.32,1.19,1.19,0,0,1,.83.32,1,1,0,0,1,.35.77v2.53h0V46.89a1.06,1.06,0,0,1,.34-.77,1.23,1.23,0,0,1,.83-.32Zm.28,1a.37.37,0,0,0-.28-.13.37.37,0,0,0-.27.13.43.43,0,0,0-.12.29v2.38h.79V47a.43.43,0,0,0-.12-.29Zm2.35,0a.37.37,0,0,0-.28-.13.37.37,0,0,0-.27.13.43.43,0,0,0-.12.29v2.38h.79V47a.43.43,0,0,0-.12-.29Zm-4.7,0a.37.37,0,0,0-.28-.13.35.35,0,0,0-.27.13A.38.38,0,0,0,73,47v2.38h.78V47a.42.42,0,0,0-.11-.29ZM78.1,63a1.13,1.13,0,0,1,.81.36v.14s.54.52.39.85V96.06H77V64.2a1.23,1.23,0,0,1,.34-.86A1.1,1.1,0,0,1,78.1,63Zm.3.9a.37.37,0,0,0-.28-.13.37.37,0,0,0-.27.13.48.48,0,0,0-.12.31V95.28h.79V64.19a.48.48,0,0,0-.12-.31ZM75,63a1.1,1.1,0,0,1,.81.36v.14s.22.52.4.85V96.06H73.81V64.2a1.23,1.23,0,0,1,.34-.86A1.13,1.13,0,0,1,75,63Zm.29.9a.49.49,0,0,0-.33-.13.46.46,0,0,0-.32.13V64s-.26.19,0,.31v31h.78V64.19a.44.44,0,0,0-.13-.31ZM71,63a1.1,1.1,0,0,1,.81.36v.14s.5.52.4.85V96.06H69.9V64.2a1.23,1.23,0,0,1,.33-.86A1.13,1.13,0,0,1,71,63Zm.31.9a.37.37,0,0,0-.28-.13.39.39,0,0,0-.28.13.47.47,0,0,0-.11.31V95.28h.78V64.19a.47.47,0,0,0-.11-.31Zm9.52-1.52H68.72V97.23H80.87V62.36ZM70.28,51.78h9V60.4H69.9V51.78Zm8.24.39H70.68v7.44h7.84V52.17Zm-7.17-5.42a.37.37,0,0,0-.56,0,.42.42,0,0,0-.11.29v2.38h.78V47a.42.42,0,0,0-.11-.29Zm10.09,3.46H67.54V61.57H81.65V50.21Zm-12-5.88H80.15L78.63,40l-3.34.39H70.76l-1.34,3.92Zm2.43-5.09h.4V37.46a.43.43,0,0,1,.12-.48h0a.68.68,0,0,1,.48-.2.72.72,0,0,1,.48.2h0a.38.38,0,0,1,.09.48v2.17h.79V37.46a.29.29,0,0,1,0-.48h0a.66.66,0,0,1,1,0h0a.81.81,0,0,1,.23.48v2.17h.39V37.46A.79.79,0,0,1,76,37h0a.66.66,0,0,1,1,0h0c.12.12.4.48.4.48v2.17h.39V36.49H71.85v2.75Zm.79.39H73V37.46s0-.08-.08-.1h0a.13.13,0,0,0-.1,0,.12.12,0,0,0-.1,0h0s0,.06-.11.1v2.17Zm2-2.31a.15.15,0,0,0-.11,0h0s0,.06,0,.1v2.17H75V37.46c-.17,0-.19-.08-.21-.1h0a.13.13,0,0,0-.1,0Zm1.78,0a.13.13,0,0,0-.1,0h0a.35.35,0,0,1-.19.1v2.17h.39V37.46a.06.06,0,0,0,0-.1h0a.12.12,0,0,0-.1,0Zm-4.61-1.61h5.49v-.79H71.85v.79Zm3.64-5.77-.83-3-1.89,6.77h3.79l-1.07-3.81ZM49.32,90.09l5-11.37v-.06l-8.9,8.84a14.06,14.06,0,0,0,3.89,2.59Zm6.3-14,5.1-11.6a14.11,14.11,0,0,0-5.32-1.13V76l.22.06ZM61,64.66,55.87,76.29l.12.1,9-8.93,0,0a14.11,14.11,0,0,0-4-2.77Zm-7,16-4.23,9.62A13.92,13.92,0,0,0,52,91L54,80.64ZM45.11,87.2l9-9h0l-12,4.56a14.08,14.08,0,0,0,3,4.41ZM42,82.54,53.82,78H41A13.79,13.79,0,0,0,42,82.54Zm.32-11,11.52,5.33a.3.3,0,0,0,0-.08l-9-9a13.78,13.78,0,0,0-2.56,3.78ZM67.53,83.68,56.06,78.37l8.85,8.88,0,0a14.16,14.16,0,0,0,2.57-3.52ZM53.44,77.1,42,71.72a14.16,14.16,0,0,0-1.07,5.42v.11H53.44V77.1Zm-8.3-9.7,9,9,.17-.14L49.74,64.37a14,14,0,0,0-4.6,3ZM64.59,87.56l-8.85-8.89.07.39,4.3,11.29a14.21,14.21,0,0,0,4.48-2.79ZM50.34,64.21,54.85,76,55,76V63.34a14.16,14.16,0,0,0-4.66.87ZM59.69,90.5l-3.42-9L58,91a13,13,0,0,0,1.65-.47ZM55.4,80.92V91.29a15.22,15.22,0,0,0,1.91-.16l-.71-3.77-1.2-6.44Zm0,11v.18H55V92a15.45,15.45,0,0,1-2.22-.17l-.27,1.42a16,16,0,0,0,5.05,0l-.27-1.42a15.16,15.16,0,0,1-2,.17Zm-.4-.67V80.92L53.09,91.13a15.06,15.06,0,0,0,1.91.16Zm-2.61,2.56-.49,2.6h1.7a1.36,1.36,0,0,1-.06-.78,1.32,1.32,0,1,1,2.52.78h2.11l-.49-2.6a17.59,17.59,0,0,1-5.29,0Zm9.38-35.41a1.32,1.32,0,1,1-1.32,1.32,1.32,1.32,0,0,1,1.32-1.32Zm-6.94-1.37a1.32,1.32,0,1,1-1.33,1.32,1.33,1.33,0,0,1,1.33-1.32ZM47.41,58.6a1.32,1.32,0,1,1-1.33,1.32,1.33,1.33,0,0,1,1.33-1.32Zm-5.86,4a1.32,1.32,0,1,1-1.33,1.32,1.33,1.33,0,0,1,1.33-1.32ZM37.4,68.88a1.32,1.32,0,1,1-1.33,1.32,1.32,1.32,0,0,1,1.33-1.32Zm-1.35,7a1.32,1.32,0,1,1-1.33,1.32,1.33,1.33,0,0,1,1.33-1.32Zm1.5,7.39a1.32,1.32,0,1,1-1.33,1.32,1.33,1.33,0,0,1,1.33-1.32Zm4,5.91a1.32,1.32,0,1,1-1.33,1.32,1.33,1.33,0,0,1,1.33-1.32Zm6.27,4.14a1.32,1.32,0,1,1,0,2.64,1.32,1.32,0,0,1,0-2.64Zm14.39-.16a1.32,1.32,0,1,1-1.32,1.32,1.33,1.33,0,0,1,1.32-1.32Z" transform="translate(-2.1 -14.15)"/>
<path class="cls-2" d="M77.67,56.49a3,3,0,0,1-.88,2.06,2.86,2.86,0,0,1-2,.87h0a2.83,2.83,0,0,1-2-1,3,3,0,0,1-.84-1.94v0a2.91,2.91,0,0,1,1.79-2.77c.4-.23.76-.44.84-.76H75c.1.33.48.55.89.79a2.86,2.86,0,0,1,1.79,2.76Zm-1.39,1.63a2.45,2.45,0,0,0,.71-1.7,2.39,2.39,0,0,0-1.52-2.29,3.61,3.61,0,0,1-.86-.63,3,3,0,0,1-.84.61,2.44,2.44,0,0,0-1.52,2.32v0A2.43,2.43,0,0,0,72.93,58a2.35,2.35,0,0,0,1.64.8h0a2.37,2.37,0,0,0,1.67-.71Z" transform="translate(-2.1 -14.15)"/>
<path class="cls-2" d="M3.07,121.14H7.69c5.07,0,7.46-3.66,7.46-7s-2.54-6.67-7.46-6.67H3a.49.49,0,0,0-.52.52l0,12.66a.58.58,0,0,0,.54.54ZM5.63,118v-7.83h2c2.81,0,4.28,1.85,4.28,3.76A4,4,0,0,1,7.6,118Zm22.58.44c-1.76,0-3-.42-3.28-1.42,2.95-.58,4.29-2.3,4.29-4.77s-1.9-4.83-5.59-4.83H17.51a.52.52,0,0,0-.52.52V120.6a.5.5,0,0,0,.52.54h2.1a.5.5,0,0,0,.52-.54v-3.47c.45,0,.91.08,1.34.1.91,3,4,3.91,6.73,3.91a.55.55,0,0,0,.55-.54V119a.52.52,0,0,0-.54-.52Zm-8.08-8.27h3.5c1.64,0,2.43,1,2.43,1.91,0,1.45-1.1,2.16-4,2.16a19.06,19.06,0,0,1-1.91-.09v-4ZM37,121.4A6,6,0,0,0,43.25,115v-7.1a.53.53,0,0,0-.52-.52H40.66a.5.5,0,0,0-.55.52V115c0,1.79-1.08,3.43-3,3.43a3.12,3.12,0,0,1-3.24-3.32v-7.21a.52.52,0,0,0-.52-.52H31.23a.52.52,0,0,0-.52.52V115A6,6,0,0,0,37,121.4Zm8.69-.26h2.13a.49.49,0,0,0,.5-.54v-3.47a22.3,22.3,0,0,0,2.23.12c4.59,0,6.65-1.91,6.65-5,0-2.46-1.86-4.83-5.46-4.83h-6a.52.52,0,0,0-.52.52V120.6a.49.49,0,0,0,.5.54Zm4.54-6.9c-.56,0-1.2,0-1.91-.09v-4h3.51c1.64,0,2.43,1,2.43,1.91,0,1.45-1.1,2.16-4,2.16Zm9.2,6.51h2.47a.51.51,0,0,0,.53-.53v-2.61h5.88v2.61a.49.49,0,0,0,.51.53h2.1a.5.5,0,0,0,.52-.54v-5.92c0-4.67-2.63-7.62-6.23-7.62-3.43,0-6.31,2.74-6.31,7.62v5.92a.5.5,0,0,0,.53.54Zm2.88-5.88c0-3.07.91-5.09,2.93-5.09s3,2,3,5.09Zm16.92,5.88h3.44a.49.49,0,0,0,.53-.51v-1.7a.54.54,0,0,0-.54-.54h-2.9c-2,0-3.22.14-3.22-2.7v-7.36a.53.53,0,0,0-.52-.52h-2.1a.52.52,0,0,0-.52.52v7.76c0,3.82,2.11,5,5.83,5Zm12.08.48a9.27,9.27,0,0,0,4.41-1.16.62.62,0,0,0,.16-.71l-.85-1.51a.55.55,0,0,0-.75-.23,5.23,5.23,0,0,1-2.43.68A4.09,4.09,0,0,1,87.58,114a4,4,0,0,1,4-4.18,6.15,6.15,0,0,1,2.7.65.51.51,0,0,0,.75-.17l.85-1.6a.46.46,0,0,0-.16-.68,9.74,9.74,0,0,0-4.41-1.1,6.89,6.89,0,0,0-7,7.08,7,7,0,0,0,7,7.26Zm6.92-.48h2.07a.5.5,0,0,0,.53-.53v-2.61h5.88v2.61a.49.49,0,0,0,.51.53h2.49a.5.5,0,0,0,.53-.54v-5.92c0-4.67-2.63-7.62-6.23-7.62-3.43,0-6.31,2.74-6.31,7.62v5.92a.5.5,0,0,0,.53.54Zm2.59-5.88c0-3.07.92-5.09,2.93-5.09s3,2,3,5.09Zm11.51,5.88h2s.54,0,.62-.33v-9.2a26.69,26.69,0,0,1,3.41,7.62.45.45,0,0,0,.47.34h2.29a.46.46,0,0,0,.48-.34,25.07,25.07,0,0,1,3.54-7.78v9.36c-.06.33.48.33.48.33h2.11a.51.51,0,0,0,.55-.53V107.94a.53.53,0,0,0-.52-.52h-3.54a.88.88,0,0,0-.75.45,45.85,45.85,0,0,0-3.4,6.8,50.12,50.12,0,0,0-3.47-6.8.85.85,0,0,0-.73-.45h-3.53a.52.52,0,0,0-.52.52v12.28a.49.49,0,0,0,.52.53Zm18.4.39h2.13a.49.49,0,0,0,.5-.54v-3.47a22.3,22.3,0,0,0,2.23.12c4.59,0,6.65-1.91,6.65-5,0-2.46-1.86-4.83-5.46-4.83h-6a.52.52,0,0,0-.51.52V120.6a.49.49,0,0,0,.5.54Zm4.54-6.9c-.56,0-1.2,0-1.91-.09v-4h3.51c1.64,0,2.43,1,2.43,1.91,0,1.45-1.1,2.16-4,2.16Z" transform="translate(-2.1 -14.15)"/>
<path class="cls-2" d="M3.66,129.41l-.2,0a1.43,1.43,0,0,0-.53.17,1.57,1.57,0,0,0-.47.38,1.43,1.43,0,0,0-.14.2,1.49,1.49,0,0,0-.17.39,1.43,1.43,0,0,0,0,.22,1.81,1.81,0,0,0,0,.38,1.7,1.7,0,0,0,0,.22,1.5,1.5,0,0,0,.22.46,1.3,1.3,0,0,0,.15.2l.08.07a1.57,1.57,0,0,0,.65.37l.25,0h.36a1.48,1.48,0,0,0,.54-.17,1.53,1.53,0,0,0,.46-.38.8.8,0,0,0,.15-.21,1.28,1.28,0,0,0,.16-.38s0-.1,0-.06H32.67v-.39H5.21a1.12,1.12,0,0,0,0-.37A1.42,1.42,0,0,0,5,130.1l-.15-.19-.08-.08a1.64,1.64,0,0,0-.66-.36l-.25-.05Z" transform="translate(-2.1 -14.15)"/>
<path class="cls-2" d="M141.47,129.41l.2,0a1.43,1.43,0,0,1,.53.17,1.57,1.57,0,0,1,.47.38l.15.2a1.88,1.88,0,0,1,.16.39,1.43,1.43,0,0,1,0,.22,1.81,1.81,0,0,1,0,.38,1.7,1.7,0,0,1,0,.22,1.75,1.75,0,0,1-.21.46l-.16.2-.08.07a1.57,1.57,0,0,1-.65.37l-.25,0h-.36a1.48,1.48,0,0,1-.54-.17,1.53,1.53,0,0,1-.46-.38.8.8,0,0,1-.15-.21,1.28,1.28,0,0,1-.16-.38s0-.1,0-.06H112.61v-.39h27.32a1,1,0,0,1,0-.37,1.42,1.42,0,0,1,.21-.47l.15-.19.08-.08a1.64,1.64,0,0,1,.66-.36l.25-.05Z" transform="translate(-2.1 -14.15)"/>
<path class="cls-2" d="M72.86,130.51a3.92,3.92,0,0,1-1.15,2.73A3.77,3.77,0,0,1,69,134.38H69a3.79,3.79,0,0,1-2.66-1.27,3.9,3.9,0,0,1-1.1-2.55v-.06a3.84,3.84,0,0,1,2.36-3.66c.53-.3,1-.57,1.11-1h.68c.13.43.62.72,1.17,1a3.78,3.78,0,0,1,2.35,3.64Zm-3.76,3.24" transform="translate(-2.1 -14.15)"/>
<path class="cls-2" d="M35.41,127H37v6.27h2v1.57H35.41Z" transform="translate(-2.1 -14.15)"/>
<path class="cls-2" d="M44.06,126.84a3.9,3.9,0,0,1,2.88,1.21,4.21,4.21,0,0,1,0,5.87,4.13,4.13,0,0,1-5.83,0,4.13,4.13,0,0,1,2.93-7Zm0,1.46a2.51,2.51,0,0,0-1.84.76,2.66,2.66,0,0,0-.75,1.94,2.55,2.55,0,0,0,.94,2.07,2.63,2.63,0,0,0,1.68.59,2.44,2.44,0,0,0,1.81-.77,2.62,2.62,0,0,0,.75-1.9,2.66,2.66,0,0,0-.75-1.91A2.48,2.48,0,0,0,44.05,128.3Z" transform="translate(-2.1 -14.15)"/>
<path class="cls-2" d="M49.52,127H50.7l3.52,5.16V127h1.57v7.84H54.6l-3.52-5.15v5.15H49.52Z" transform="translate(-2.1 -14.15)"/>
<path class="cls-2" d="M57.75,127h1.76a5.86,5.86,0,0,1,2.54.42,3.25,3.25,0,0,1,1.37,1.38,4.82,4.82,0,0,1,.24,3.89,3.42,3.42,0,0,1-.83,1.26,2.83,2.83,0,0,1-1.15.69,8,8,0,0,1-2.14.2H57.75Zm1.56,1.57v5.09H60a3.62,3.62,0,0,0,1.53-.24,1.81,1.81,0,0,0,.77-.82,3,3,0,0,0,.31-1.4,2.69,2.69,0,0,0-.72-2,2.92,2.92,0,0,0-2.08-.63Z" transform="translate(-2.1 -14.15)"/>
<path class="cls-2" d="M69.08,126.84A3.91,3.91,0,0,1,72,128.05a4.2,4.2,0,0,1,0,5.87,3.89,3.89,0,0,1-2.88,1.19,4,4,0,0,1-3-1.22,4.22,4.22,0,0,1-.62-5,4.1,4.1,0,0,1,3.56-2Zm0,1.46a2.51,2.51,0,0,0-1.84.76,2.7,2.7,0,0,0-.74,1.94,2.52,2.52,0,0,0,.94,2.07,2.58,2.58,0,0,0,1.67.59,2.46,2.46,0,0,0,1.82-.77,2.78,2.78,0,0,0,0-3.81A2.45,2.45,0,0,0,69.06,128.3Z" transform="translate(-2.1 -14.15)"/>
<path class="cls-2" d="M74.6,127h1.18l3.52,5.16V127h1.57v7.84H79.68l-3.51-5.15v5.15H74.6Z" transform="translate(-2.1 -14.15)"/>
<path class="cls-2" d="M56.05,58.46a1.33,1.33,0,0,1-.39.93,1.29,1.29,0,0,1-.92.39h0a1.29,1.29,0,0,1-.91-.43,1.35,1.35,0,0,1-.37-.87v0a1.3,1.3,0,0,1,.8-1.25c.18-.1.34-.2.38-.34h.23c0,.14.21.24.4.35a1.29,1.29,0,0,1,.8,1.24Zm-1.24,1.06" transform="translate(-2.1 -14.15)"/>
<path class="cls-2" d="M63.1,59.64a1.35,1.35,0,0,1-.39.93,1.34,1.34,0,0,1-.92.39h0a1.39,1.39,0,0,1-1.28-1.31v0a1.3,1.3,0,0,1,.8-1.24c.18-.11.34-.2.38-.34h.23c.05.15.21.25.4.36a1.26,1.26,0,0,1,.8,1.24Zm-1.35,1.2" transform="translate(-2.1 -14.15)"/>
<path class="cls-2" d="M48.6,60a1.35,1.35,0,0,1-.39.93,1.29,1.29,0,0,1-.92.39h0A1.39,1.39,0,0,1,46,60v0a1.32,1.32,0,0,1,.8-1.24c.18-.11.34-.2.38-.34h.23c.05.15.21.25.4.36A1.28,1.28,0,0,1,48.6,60Zm-1.23,1" transform="translate(-2.1 -14.15)"/>
<path class="cls-2" d="M42.72,64a1.35,1.35,0,0,1-.39.93,1.31,1.31,0,0,1-.91.39h0A1.41,1.41,0,0,1,40.11,64v0a1.3,1.3,0,0,1,.81-1.24c.18-.11.33-.2.37-.34h.23c0,.15.22.25.4.36a1.26,1.26,0,0,1,.8,1.24Zm-1.19,1" transform="translate(-2.1 -14.15)"/>
<path class="cls-2" d="M38.81,70.22a1.41,1.41,0,0,1-.4.93,1.27,1.27,0,0,1-.91.39h0a1.3,1.3,0,0,1-.9-.44,1.34,1.34,0,0,1-.38-.87v0A1.3,1.3,0,0,1,37,69c.18-.11.34-.2.38-.34h.22c0,.15.22.25.4.36a1.28,1.28,0,0,1,.81,1.24Zm-1.46,1.06" transform="translate(-2.1 -14.15)"/>
<path class="cls-2" d="M37.24,77.27a1.33,1.33,0,0,1-.39.93,1.29,1.29,0,0,1-.92.39h0a1.29,1.29,0,0,1-.91-.43,1.35,1.35,0,0,1-.37-.87v0a1.3,1.3,0,0,1,.8-1.25c.18-.1.34-.19.38-.34H36c0,.14.21.24.4.35a1.29,1.29,0,0,1,.8,1.24Zm-1.21,1" transform="translate(-2.1 -14.15)"/>
<path class="cls-2" d="M38.81,84.32a1.41,1.41,0,0,1-.4.94,1.31,1.31,0,0,1-.91.39h0a1.25,1.25,0,0,1-.9-.43,1.34,1.34,0,0,1-.38-.87v0A1.29,1.29,0,0,1,37,83.08c.18-.11.34-.2.38-.35h.22c0,.15.22.25.4.36a1.28,1.28,0,0,1,.81,1.23Zm-1.28,1.27" transform="translate(-2.1 -14.15)"/>
<path class="cls-2" d="M42.72,90.59a1.36,1.36,0,0,1-.39.94,1.31,1.31,0,0,1-.91.39h0a1.41,1.41,0,0,1-1.28-1.31v0a1.29,1.29,0,0,1,.81-1.24c.18-.11.33-.2.37-.35h.23c0,.15.22.25.4.36a1.26,1.26,0,0,1,.8,1.23Zm-1.18,1" transform="translate(-2.1 -14.15)"/>
<path class="cls-2" d="M49,94.51a1.37,1.37,0,0,1-.4.93,1.27,1.27,0,0,1-.91.39h0a1.25,1.25,0,0,1-.9-.43,1.3,1.3,0,0,1-.38-.87v0a1.32,1.32,0,0,1,.81-1.25c.18-.1.33-.19.37-.34h.23c.05.15.22.25.4.35A1.31,1.31,0,0,1,49,94.51Zm-1.19,1.14" transform="translate(-2.1 -14.15)"/>
<path class="cls-2" d="M56.05,96.08a1.33,1.33,0,0,1-.39.93,1.29,1.29,0,0,1-.92.39h0a1.29,1.29,0,0,1-.91-.43,1.33,1.33,0,0,1-.37-.87v0a1.3,1.3,0,0,1,.8-1.25c.18-.1.34-.19.38-.34h.23c0,.14.21.24.4.35a1.29,1.29,0,0,1,.8,1.24Zm-1.26,1" transform="translate(-2.1 -14.15)"/>
<path class="cls-2" d="M63.5,94.51a1.37,1.37,0,0,1-.4.93,1.27,1.27,0,0,1-.91.39h0a1.25,1.25,0,0,1-.9-.43,1.3,1.3,0,0,1-.38-.87v0a1.32,1.32,0,0,1,.81-1.25c.18-.1.33-.19.37-.34h.23c.05.15.22.25.4.35a1.31,1.31,0,0,1,.81,1.24Zm-1.3,1" transform="translate(-2.1 -14.15)"/>
  <path class="cls-2" d="M86.77,129.55H85.3a2.92,2.92,0,0,1,.8-2,2.64,2.64,0,0,1,1.91-.73,2.52,2.52,0,0,1,1.27.31,2.27,2.27,0,0,1,.87.87,2.3,2.3,0,0,1,.33,1.16,3.38,3.38,0,0,1-.4,1.51,7.86,7.86,0,0,1-1.46,1.91l-.88.93h2.81v1.39H85.09v-.72l2.44-2.48a7,7,0,0,0,1.17-1.44,2,2,0,0,0,.29-1,1,1,0,0,0-.3-.76,1.09,1.09,0,0,0-.78-.29,1,1,0,0,0-.8.36A1.41,1.41,0,0,0,86.77,129.55Z" transform="translate(-2.1 -14.15)"/>
  <path class="cls-2" d="M94.05,126.81a2.51,2.51,0,0,1,1.48.43,2.67,2.67,0,0,1,1,1.29,7,7,0,0,1,.34,2.42,6.88,6.88,0,0,1-.35,2.45,2.72,2.72,0,0,1-.93,1.28,2.52,2.52,0,0,1-1.47.41,2.4,2.4,0,0,1-2.44-1.67A6.48,6.48,0,0,1,91.3,131a5.76,5.76,0,0,1,.67-3.15A2.4,2.4,0,0,1,94.05,126.81Zm0,1.43a1,1,0,0,0-.67.24,1.52,1.52,0,0,0-.45.84,7.53,7.53,0,0,0-.16,1.74,4.19,4.19,0,0,0,.36,2.07,1.06,1.06,0,0,0,.92.57,1,1,0,0,0,.87-.54,4.54,4.54,0,0,0,.39-2.19,4.58,4.58,0,0,0-.35-2.14A1,1,0,0,0,94.08,128.24Z" transform="translate(-2.1 -14.15)"/>
  <path class="cls-2" d="M86.77,129.55H85.3a2.92,2.92,0,0,1,.8-2,2.64,2.64,0,0,1,1.91-.73,2.52,2.52,0,0,1,1.27.31,2.27,2.27,0,0,1,.87.87,2.3,2.3,0,0,1,.33,1.16,3.38,3.38,0,0,1-.4,1.51,7.86,7.86,0,0,1-1.46,1.91l-.88.93h2.81v1.39H85.09v-.72l2.44-2.48a7,7,0,0,0,1.17-1.44,2,2,0,0,0,.29-1,1,1,0,0,0-.3-.76,1.09,1.09,0,0,0-.78-.29,1,1,0,0,0-.8.36A1.41,1.41,0,0,0,86.77,129.55Z" transform="translate(10.3 -14.15)"/>
  <path class="cls-2" d="M94.05,126.81a2.51,2.51,0,0,1,1.48.43,2.67,2.67,0,0,1,1,1.29,7,7,0,0,1,.34,2.42,6.88,6.88,0,0,1-.35,2.45,2.72,2.72,0,0,1-.93,1.28,2.52,2.52,0,0,1-1.47.41,2.4,2.4,0,0,1-2.44-1.67A6.48,6.48,0,0,1,91.3,131a5.76,5.76,0,0,1,.67-3.15A2.4,2.4,0,0,1,94.05,126.81Zm0,1.43a1,1,0,0,0-.67.24,1.52,1.52,0,0,0-.45.84,7.53,7.53,0,0,0-.16,1.74,4.19,4.19,0,0,0,.36,2.07,1.06,1.06,0,0,0,.92.57,1,1,0,0,0,.87-.54,4.54,4.54,0,0,0,.39-2.19,4.58,4.58,0,0,0-.35-2.14A1,1,0,0,0,94.08,128.24Z" transform="translate(10.3 -14.15)"/>
</svg>